<?xml version="1.0" encoding="utf-8"?>
<!-- Generator: Adobe Illustrator 18.1.1, SVG Export Plug-In . SVG Version: 6.00 Build 0)  -->
<svg version="1.1" id="Capa_1" xmlns="http://www.w3.org/2000/svg" xmlns:xlink="http://www.w3.org/1999/xlink" x="0px" y="0px"
	 viewBox="0 0 30 30" enable-background="new 0 0 30 30" xml:space="preserve">
<g id="Capa_1_1_">
</g>
<g id="User_Male_Black_Shape">
</g>
<path id="shop-3-icon" fill="#999999" d="M2.5,13v17h25.2V13H2.5z M25.2,24.8H4.8v-9.2h20.5V24.8z M12.5,1.6l-1.2,6.2l0,0v1.2
	c0,1.2-1,2.5-2.5,2.5c-1.2,0-2.5-1-2.5-2.5V7.8l3.5-6.2C10.3,1.6,12.5,1.6,12.5,1.6z M8.8,1.6L5,7.8v1.2c0,1.2-1,2.5-2.5,2.5
	S0,10.5,0,9.1V7.8l6-6.2H8.8z M30,7.8v1.2c0,1.2-1,2.5-2.5,2.5c-1.2,0-2.5-1-2.5-2.5V7.8l-3.7-6.2h2.5L30,7.8z M17.5,7.8L17.5,7.8
	v1.2c0,1.2-1,2.5-2.5,2.5s-2.5-1-2.5-2.5V7.8l0,0l1.2-6.2h2.5L17.5,7.8z M20,1.6l3.5,6.2v1.2c0,1.2-1,2.5-2.5,2.5
	c-1.2,0-2.5-1-2.5-2.5V7.8l0,0l-1.2-6.2H20z"/>
</svg>
