<?xml version="1.0" encoding="utf-8"?>
<!-- Generator: Adobe Illustrator 18.1.1, SVG Export Plug-In . SVG Version: 6.00 Build 0)  -->
<svg version="1.1" xmlns="http://www.w3.org/2000/svg" xmlns:xlink="http://www.w3.org/1999/xlink" x="0px" y="0px"
	 viewBox="0 0 30 30" enable-background="new 0 0 30 30" xml:space="preserve">
<g id="Capa_1">
</g>
<g id="User_Male_Black_Shape">
</g>
<g id="Business_Bag">
</g>
<g id="Supermarket_Shopping_Basket">
</g>
<g id="Shopping_Basket">
	<g>
		<path fill="#999999" d="M22.5,13.2c0.2,0,0.5-0.1,0.7-0.2c0.5-0.3,0.7-0.8,0.7-1.3c0-0.2-0.1-0.5-0.2-0.7l-5.3-9.2
			c-0.3-0.5-0.8-0.7-1.3-0.7c-0.2,0-0.5,0.1-0.7,0.2c-0.5,0.3-0.7,0.8-0.8,1.3c0,0.2,0.1,0.5,0.2,0.7l5.3,9.2
			C21.5,12.9,22,13.2,22.5,13.2z"/>
		<path fill="#999999" d="M6.8,13c0.2,0.1,0.5,0.2,0.7,0.2c0.5,0,1-0.3,1.3-0.7L14,3.3c0.1-0.2,0.2-0.5,0.2-0.7c0-0.5-0.3-1-0.8-1.3
			c-0.2-0.1-0.5-0.2-0.7-0.2c-0.5,0-1,0.3-1.3,0.7l-5.3,9.2C6.1,11.3,6,11.5,6,11.8C6,12.3,6.3,12.8,6.8,13z"/>
		<path fill="#999999" d="M28.5,11.2h-3.3c0.3,1.2-0.3,2.4-1.4,3c-0.4,0.2-0.9,0.3-1.3,0.3c-1,0-1.9-0.6-2.4-1.4
			c0,0-1.1-1.9-1.1-1.9H11l-1.1,2c-0.5,0.9-1.4,1.4-2.4,1.4c-0.5,0-0.9-0.1-1.3-0.3c-0.7-0.4-1.1-1-1.3-1.7c-0.1-0.5-0.1-0.9,0-1.4
			H1.5c-0.8,0-1.5,0.7-1.5,1.5c0,0.8,0.7,1.5,1.5,1.5h0.5c0,0.1,0,0.1,0,0.2l2.9,13c0.2,0.9,1.2,1.7,2.2,1.7h0.5c0,0,0,0.2,0,0.5
			c0,0.3,0.3,0.5,0.7,0.5H12c0.4,0,0.7-0.2,0.7-0.5v-0.5h5c0,0,0,0.2,0,0.5c0,0.3,0.3,0.5,0.7,0.5h3.9c0.4,0,0.7-0.2,0.7-0.5v-0.5
			H23c0.9,0,1.9-0.7,2.2-1.7l2.9-13c0-0.1,0-0.1,0-0.2h0.5c0.8,0,1.5-0.7,1.5-1.5C30,11.8,29.4,11.2,28.5,11.2z M8.9,25.7
			c0,0.6-0.4,1.1-0.8,1.1c-0.5,0-0.8-0.5-0.8-1.1v-8.3c0-0.6,0.4-1.1,0.8-1.1c0.5,0,0.8,0.5,0.8,1.1V25.7z M13.5,25.7
			c0,0.6-0.4,1.1-0.8,1.1c-0.5,0-0.8-0.5-0.8-1.1v-8.3c0-0.6,0.4-1.1,0.8-1.1c0.5,0,0.8,0.5,0.8,1.1V25.7z M18.1,25.7
			c0,0.6-0.4,1.1-0.8,1.1c-0.5,0-0.8-0.5-0.8-1.1v-8.3c0-0.6,0.4-1.1,0.8-1.1c0.5,0,0.8,0.5,0.8,1.1V25.7z M22.8,25.7
			c0,0.6-0.4,1.1-0.8,1.1c-0.5,0-0.8-0.5-0.8-1.1v-8.3c0-0.6,0.4-1.1,0.8-1.1c0.5,0,0.8,0.5,0.8,1.1V25.7z"/>
	</g>
</g>
</svg>
