<?xml version="1.0" encoding="utf-8"?>
<!-- Generator: Adobe Illustrator 18.1.1, SVG Export Plug-In . SVG Version: 6.00 Build 0)  -->
<svg version="1.1" xmlns="http://www.w3.org/2000/svg" xmlns:xlink="http://www.w3.org/1999/xlink" x="0px" y="0px"
	 viewBox="0 0 67.1 67.3" enable-background="new 0 0 67.1 67.3" xml:space="preserve">
<g id="Capa_1">
</g>
<g id="User_Male_Black_Shape">
</g>
<g id="Business_Bag">
</g>
<g id="Supermarket_Shopping_Basket">
</g>
<g id="Shopping_Basket">
</g>
<g id="Right_Arrow_Circular_Button" display="none">
	<g display="inline">
		<g>
			<path fill="#999999" d="M13.1,33.9c0-8.1,6.6-14.7,14.7-14.7s14.7,6.6,14.7,14.7s-6.6,14.7-14.7,14.7S13.1,42,13.1,33.9z
				 M41.4,33.9c0-7.5-6.1-13.7-13.7-13.7c-7.5,0-13.7,6.1-13.7,13.7c0,7.5,6.1,13.7,13.7,13.7C35.3,47.5,41.4,41.4,41.4,33.9z"/>
			<path fill="#999999" d="M22.6,32c0-0.1,0-0.3,0.1-0.4c0.2-0.2,0.5-0.2,0.7,0l4.5,4.5l4.5-4.5c0.2-0.2,0.5-0.2,0.7,0
				c0.2,0.2,0.2,0.5,0,0.7l-4.9,4.9c-0.2,0.2-0.5,0.2-0.7,0l-4.9-4.9C22.7,32.3,22.6,32.2,22.6,32z"/>
		</g>
	</g>
</g>
<g id="Capa_7">
	<g id="Capa_1_17_">
		<circle fill="#666666" cx="33.6" cy="33.6" r="33.3"/>
	</g>
	<path id="smartphone-7-icon_5_" fill="#FFFFFF" d="M43.9,12.5H24c-1.4,0-2.5,1.1-2.5,2.5c0,0,0,32.6,0,33.9c0,5.2,7.8,5.7,12.4,5.7
		s12.5-0.4,12.5-5.7c0-1.3,0-33.9,0-33.9C46.4,13.6,45.3,12.5,43.9,12.5z M34,51.3c-1.4,0-2.5-1.1-2.5-2.5c0-1.4,1.1-2.5,2.5-2.5
		c1.4,0,2.5,1.1,2.5,2.5C36.4,50.2,35.3,51.3,34,51.3z M42.8,43.7H25.2V18.4h17.6L42.8,43.7z"/>
	<g display="none">
		<g id="Capa_1_19_" display="inline">
			<circle fill="#666666" cx="33.6" cy="33.6" r="33.3"/>
		</g>
		<g display="inline">
			<path fill="#FFFFFF" d="M17.7,35.6V16.8c0,0,0.5-4.5,5.4-4.7h17.1l13.6,14c0,0,0.3,21.4-0.1,23.1c-0.4,1.7-0.9,4.8-5.7,4.8H24.9
				c0,0-1.5,0.1-1.5-1.3s1.5-1.3,1.5-1.3l23.1,0c0,0,3.3,0.3,3.3-4.3s0-19.1,0-19.1l-9,0c0,0-4.2-0.3-4.3-3.7v-9.8H23.3
				c0,0-2.8,0-2.8,2.8l0,18.4c0,0,0,1.2-1.4,1.2C17.7,36.9,17.7,35.6,17.7,35.6z"/>
			<path fill="#FFFFFF" d="M48.1,36.3c0,0.5-0.4,0.9-0.9,0.9H31.5c-0.5,0-0.9-0.4-0.9-0.9l0,0c0-0.5,0.4-0.9,0.9-0.9h15.6
				C47.7,35.4,48.1,35.8,48.1,36.3L48.1,36.3z"/>
			<path fill="#FFFFFF" d="M48.1,39.8c0,0.5-0.4,0.9-0.9,0.9H31.5c-0.5,0-0.9-0.4-0.9-0.9l0,0c0-0.5,0.4-0.9,0.9-0.9h15.6
				C47.7,38.9,48.1,39.3,48.1,39.8L48.1,39.8z"/>
			<path fill="#FFFFFF" d="M47.1,20.2c0,0.5-0.4,0.9-0.9,0.9H31.5c-0.5,0-0.9-0.4-0.9-0.9l0,0c0-0.5,0.4-0.9,0.9-0.9h14.7
				c0.5,0,0.6,0.4,0.6,0.9H47.1z"/>
			<path fill="#FFFFFF" d="M48.1,23.7c0,0.5-0.4,0.9-0.9,0.9H31.5c-0.5,0-0.9-0.4-0.9-0.9l0,0c0-0.5,0.4-0.9,0.9-0.9h15.6
				C47.7,22.8,48.1,23.2,48.1,23.7L48.1,23.7z"/>
			<path fill="#FFFFFF" d="M26.2,18.7c-1.6,0-2.8,1.3-2.8,2.8c0,1.6,1.3,2.8,2.8,2.8s2.8-1.3,2.8-2.8C29,20,27.7,18.7,26.2,18.7z
				 M26.2,23c-0.8,0-1.5-0.7-1.5-1.5c0-0.8,0.7-1.5,1.5-1.5s1.5,0.7,1.5,1.5C27.7,22.4,27,23,26.2,23z"/>
			<path fill="#FFFFFF" d="M16.1,44.1l2.2,2.8L24,34.9c0,0,0.8-2,3-1.1c1.8,0.9,0.7,3,0.7,3l-7.5,16.1c0,0-0.5,1.3-1.4,1.3
				c-0.9,0-1.2-0.7-1.7-1.3c-0.5-0.5-4.1-6.1-4.1-6.1s-1.1-1.5,0.4-2.7C15.3,43,16.1,44.1,16.1,44.1z"/>
		</g>
	</g>
</g>
</svg>
