<?xml version="1.0" encoding="utf-8"?>
<!-- Generator: Adobe Illustrator 18.1.1, SVG Export Plug-In . SVG Version: 6.00 Build 0)  -->
<svg version="1.1" xmlns="http://www.w3.org/2000/svg" xmlns:xlink="http://www.w3.org/1999/xlink" x="0px" y="0px"
	 viewBox="0 0 30 30" enable-background="new 0 0 30 30" xml:space="preserve">
<g id="Capa_1">
</g>
<g id="User_Male_Black_Shape">
</g>
<g id="Business_Bag">
</g>
<g id="Supermarket_Shopping_Basket">
</g>
<g id="Shopping_Basket">
</g>
<g id="Right_Arrow_Circular_Button">
	<g>
		<g>
			<path fill="#999999" d="M0.3,15C0.3,6.9,6.9,0.3,15,0.3S29.7,6.9,29.7,15S23.1,29.7,15,29.7S0.3,23.1,0.3,15z M28.7,15
				c0-7.5-6.1-13.7-13.7-13.7C7.5,1.3,1.3,7.5,1.3,15c0,7.5,6.1,13.7,13.7,13.7C22.5,28.7,28.7,22.5,28.7,15z"/>
			<path fill="#999999" d="M9.9,13.2c0-0.1,0-0.3,0.1-0.4c0.2-0.2,0.5-0.2,0.7,0l4.5,4.5l4.5-4.5c0.2-0.2,0.5-0.2,0.7,0
				c0.2,0.2,0.2,0.5,0,0.7l-4.9,4.9c-0.2,0.2-0.5,0.2-0.7,0L10,13.5C9.9,13.4,9.9,13.3,9.9,13.2z"/>
		</g>
	</g>
</g>
</svg>
