<?xml version="1.0" encoding="utf-8"?>
<!-- Generator: Adobe Illustrator 18.1.1, SVG Export Plug-In . SVG Version: 6.00 Build 0)  -->
<svg version="1.1" xmlns="http://www.w3.org/2000/svg" xmlns:xlink="http://www.w3.org/1999/xlink" x="0px" y="0px"
	 viewBox="0 0 67.1 67.3" enable-background="new 0 0 67.1 67.3" xml:space="preserve">
<g id="Capa_1">
</g>
<g id="User_Male_Black_Shape">
</g>
<g id="Business_Bag">
</g>
<g id="Supermarket_Shopping_Basket">
</g>
<g id="Shopping_Basket">
</g>
<g id="Right_Arrow_Circular_Button" display="none">
	<g display="inline">
		<g>
			<path fill="#999999" d="M13.1,33.9c0-8.1,6.6-14.7,14.7-14.7s14.7,6.6,14.7,14.7s-6.6,14.7-14.7,14.7S13.1,42,13.1,33.9z
				 M41.4,33.9c0-7.5-6.1-13.7-13.7-13.7c-7.5,0-13.7,6.1-13.7,13.7c0,7.5,6.1,13.7,13.7,13.7C35.3,47.5,41.4,41.4,41.4,33.9z"/>
			<path fill="#999999" d="M22.6,32c0-0.1,0-0.3,0.1-0.4c0.2-0.2,0.5-0.2,0.7,0l4.5,4.5l4.5-4.5c0.2-0.2,0.5-0.2,0.7,0
				c0.2,0.2,0.2,0.5,0,0.7l-4.9,4.9c-0.2,0.2-0.5,0.2-0.7,0l-4.9-4.9C22.7,32.3,22.6,32.2,22.6,32z"/>
		</g>
	</g>
</g>
<g id="Capa_7">
	<g display="none">
		<g id="Capa_1_19_" display="inline">
			<circle fill="#666666" cx="33.6" cy="33.6" r="33.3"/>
		</g>
		<g display="inline">
			<path fill="#FFFFFF" d="M17.7,35.6V16.8c0,0,0.5-4.5,5.4-4.7h17.1l13.6,14c0,0,0.3,21.4-0.1,23.1c-0.4,1.7-0.9,4.8-5.7,4.8H24.9
				c0,0-1.5,0.1-1.5-1.3s1.5-1.3,1.5-1.3l23.1,0c0,0,3.3,0.3,3.3-4.3s0-19.1,0-19.1l-9,0c0,0-4.2-0.3-4.3-3.7v-9.8H23.3
				c0,0-2.8,0-2.8,2.8l0,18.4c0,0,0,1.2-1.4,1.2C17.7,36.9,17.7,35.6,17.7,35.6z"/>
			<path fill="#FFFFFF" d="M48.1,36.3c0,0.5-0.4,0.9-0.9,0.9H31.5c-0.5,0-0.9-0.4-0.9-0.9l0,0c0-0.5,0.4-0.9,0.9-0.9h15.6
				C47.7,35.4,48.1,35.8,48.1,36.3L48.1,36.3z"/>
			<path fill="#FFFFFF" d="M48.1,39.8c0,0.5-0.4,0.9-0.9,0.9H31.5c-0.5,0-0.9-0.4-0.9-0.9l0,0c0-0.5,0.4-0.9,0.9-0.9h15.6
				C47.7,38.9,48.1,39.3,48.1,39.8L48.1,39.8z"/>
			<path fill="#FFFFFF" d="M47.1,20.2c0,0.5-0.4,0.9-0.9,0.9H31.5c-0.5,0-0.9-0.4-0.9-0.9l0,0c0-0.5,0.4-0.9,0.9-0.9h14.7
				c0.5,0,0.6,0.4,0.6,0.9H47.1z"/>
			<path fill="#FFFFFF" d="M48.1,23.7c0,0.5-0.4,0.9-0.9,0.9H31.5c-0.5,0-0.9-0.4-0.9-0.9l0,0c0-0.5,0.4-0.9,0.9-0.9h15.6
				C47.7,22.8,48.1,23.2,48.1,23.7L48.1,23.7z"/>
			<path fill="#FFFFFF" d="M26.2,18.7c-1.6,0-2.8,1.3-2.8,2.8c0,1.6,1.3,2.8,2.8,2.8s2.8-1.3,2.8-2.8C29,20,27.7,18.7,26.2,18.7z
				 M26.2,23c-0.8,0-1.5-0.7-1.5-1.5c0-0.8,0.7-1.5,1.5-1.5s1.5,0.7,1.5,1.5C27.7,22.4,27,23,26.2,23z"/>
			<path fill="#FFFFFF" d="M16.1,44.1l2.2,2.8L24,34.9c0,0,0.8-2,3-1.1c1.8,0.9,0.7,3,0.7,3l-7.5,16.1c0,0-0.5,1.3-1.4,1.3
				c-0.9,0-1.2-0.7-1.7-1.3c-0.5-0.5-4.1-6.1-4.1-6.1s-1.1-1.5,0.4-2.7C15.3,43,16.1,44.1,16.1,44.1z"/>
		</g>
	</g>
	<g>
		<g id="Capa_1_18_">
			<circle fill="#666666" cx="33.6" cy="33.6" r="33.3"/>
		</g>
		<path fill="#FFFFFF" d="M49.3,15.8l-13.4,0.8c-1.1,0.1-2.5,0.9-3,1.8L30.7,22l-0.5-0.5c-0.8-0.7-2.4-1.1-3.4-0.9l-11.2,2.8
			c-1.1,0.3-2.2,1.4-2.4,2.4l-2.8,11.2c-0.3,1.1,0.1,2.6,0.9,3.4l8.9,10c0.7,0.8,2.2,1.2,3.2,0.7L34,46.9c1-0.4,2.2-1.6,2.6-2.6
			l0.3-0.8l12.4,0.7c1.1,0.1,2.4-0.7,2.8-1.7l4.5-10.6c0.4-1,0.4-2.7,0-3.7l-4.5-10.6C51.7,16.5,50.4,15.7,49.3,15.8z M18.8,43.4
			c0.6-0.6,1.5-0.5,2,0.2c0.5,0.7,0.4,1.8-0.2,2.4c-0.6,0.6-1.5,0.5-2-0.2C18.1,45.1,18.2,44,18.8,43.4z M15.2,37.1
			c0.5,0.7,0.4,1.8-0.2,2.4c-0.6,0.6-1.5,0.5-2-0.2c-0.5-0.7-0.4-1.8,0.2-2.4C13.9,36.3,14.7,36.4,15.2,37.1z M20.5,36.5
			c0.6-0.6,1.5-0.5,2,0.2c0.5,0.7,0.4,1.8-0.2,2.4c-0.6,0.6-1.5,0.5-2-0.2C19.8,38.2,19.9,37.1,20.5,36.5z M16.9,30.2
			c0.5,0.7,0.4,1.8-0.2,2.4c-0.6,0.6-1.5,0.5-2-0.2c-0.5-0.7-0.4-1.8,0.2-2.4C15.6,29.4,16.4,29.5,16.9,30.2z M32,40.1l0.7,1.1
			c-0.1,0.4-0.3,0.8-0.7,1.1c-0.7,0.7-1.6,0.9-2,0.5c-0.4-0.4-0.2-1.3,0.5-2C30.9,40.3,31.5,40,32,40.1z M26.5,29.9
			c0,0.7,0.1,1.3,0.4,1.8l0.5,0.8c-0.5,0.1-1,0-1.5-0.3c-0.7-0.5-0.8-1.4-0.2-2C26,30.1,26.2,30,26.5,29.9z M37.2,39.4
			c0.1,0.9-0.4,1.5-1.3,1.5c-0.9,0-1.7-0.7-1.8-1.5c-0.1-0.9,0.4-1.5,1.3-1.5C36.2,37.9,37,38.6,37.2,39.4z M29.7,23.7l-1.1,1.9
			c-0.5,0.1-1.1,0-1.5-0.3c-0.7-0.5-0.8-1.4-0.2-2c0.6-0.6,1.7-0.7,2.4-0.2C29.5,23.3,29.6,23.5,29.7,23.7z M42.9,34.2
			c0.2,0.9-0.4,1.6-1.3,1.6c-0.9,0-1.7-0.7-1.8-1.5c-0.2-0.9,0.4-1.6,1.3-1.6C41.9,32.7,42.7,33.4,42.9,34.2z M49.8,38.1
			c0-1,0.5-1.8,1.1-1.8c0.6,0,1.1,0.8,1.1,1.8c0,1-0.5,1.8-1.1,1.8C50.3,39.9,49.8,39.1,49.8,38.1z M47.1,32.6
			c-0.6,0-1.1-0.8-1.1-1.8c0-1,0.5-1.8,1.1-1.8c0.6,0,1.1,0.8,1.1,1.8C48.2,31.8,47.7,32.6,47.1,32.6z M39.6,26.8
			c0-0.9,0.7-1.7,1.5-1.8c0.9-0.2,1.6,0.4,1.6,1.3c0,0.9-0.7,1.7-1.5,1.8C40.3,28.2,39.6,27.6,39.6,26.8z M37,23.2
			c0-0.9,0.7-1.7,1.5-1.8c0.9-0.2,1.6,0.4,1.6,1.3c0,0.9-0.7,1.7-1.6,1.8C37.7,24.6,37,24.1,37,23.2z M37.5,19.1
			c0,0.9-0.7,1.7-1.6,1.8c-0.9,0.1-1.5-0.4-1.5-1.3c0-0.9,0.7-1.7,1.6-1.8C36.8,17.7,37.5,18.2,37.5,19.1z M52.7,32.1
			c0.6,0,1.1,0.8,1.1,1.8s-0.5,1.8-1.1,1.8c-0.6,0-1.1-0.8-1.1-1.8C51.6,32.9,52.1,32.1,52.7,32.1z M50.2,26.8c0,1-0.5,1.8-1.1,1.8
			c-0.6,0-1.1-0.8-1.1-1.8c0-1,0.5-1.8,1.1-1.8C49.7,25,50.2,25.8,50.2,26.8z M54.6,28c0.6,0,1.1,0.8,1.1,1.8c0,1-0.5,1.8-1.1,1.8
			c-0.6,0-1.1-0.8-1.1-1.8C53.5,28.8,54,28,54.6,28z M52.1,22.7c0,1-0.5,1.8-1.1,1.8c-0.6,0-1.1-0.8-1.1-1.8c0-1,0.5-1.8,1.1-1.8
			C51.6,20.9,52.1,21.7,52.1,22.7z"/>
	</g>
</g>
<g id="Coins_Money_Stack">
</g>
</svg>
