<?xml version="1.0" encoding="utf-8"?>
<!-- Generator: Adobe Illustrator 18.1.1, SVG Export Plug-In . SVG Version: 6.00 Build 0)  -->
<svg version="1.1" xmlns="http://www.w3.org/2000/svg" xmlns:xlink="http://www.w3.org/1999/xlink" x="0px" y="0px"
	 viewBox="0 0 30 30" enable-background="new 0 0 30 30" xml:space="preserve">
<g id="Capa_1">
</g>
<g id="User_Male_Black_Shape">
	<g>
		<path fill="#999999" d="M24.2,20.7h-1.8c-2,0-3.7-1.7-3.7-3.7v-1.2c0.8-1,1.4-2.1,1.8-3.3c0-0.2,0.2-0.3,0.4-0.4
			c0.7-0.7,0.8-1.9,0.3-2.7c-0.1-0.1-0.2-0.2-0.2-0.4c0-1.1,0-2.2,0-3.2c0-1.3-0.4-2.7-1.3-3.6c-0.7-0.8-1.8-1.2-2.8-1.4
			c-1.3-0.3-2.7-0.2-4,0.1c-1.1,0.3-2.2,1-2.9,1.9C9.4,3.5,9.1,4.5,9.1,5.5c0,1.1,0,2.2,0,3.3c0,0.2-0.2,0.4-0.2,0.6
			c-0.5,0.9-0.3,2.1,0.5,2.8c0.2,0.1,0.2,0.4,0.3,0.6c0.3,1.1,0.9,2.1,1.7,3V17c0,2-1.7,3.7-3.7,3.7H5.8c0,0-3.3,0.9-5.5,5.5v1.8
			c0,1,0.8,1.8,1.8,1.8h25.8c1,0,1.8-0.8,1.8-1.8v-1.8C27.6,21.6,24.2,20.7,24.2,20.7z"/>
	</g>
</g>
</svg>
