<?xml version="1.0" encoding="utf-8"?>
<!-- Generator: Adobe Illustrator 18.0.0, SVG Export Plug-In . SVG Version: 6.00 Build 0)  -->
<!DOCTYPE svg PUBLIC "-//W3C//DTD SVG 1.1//EN" "http://www.w3.org/Graphics/SVG/1.1/DTD/svg11.dtd">
<svg version="1.1" xmlns="http://www.w3.org/2000/svg" xmlns:xlink="http://www.w3.org/1999/xlink" x="0px" y="0px"
	 viewBox="0 0 288 288" enable-background="new 0 0 288 288" xml:space="preserve">
<g id="Fondo">
</g>
<g id="Guías">
</g>
<g id="Primer_plano">
	<g>
		<path fill="#C10000" d="M0,144.1C0,64.5,64.5,0,144.1,0c46.9,0,88.5,22.4,114.8,57l-58.3,58.3c-10.5-20.5-31.9-34.6-56.5-34.6
			c-35,0-63.4,28.4-63.4,63.4c0,35,28.4,63.4,63.4,63.4c24.7,0,46-14.1,56.5-34.6l58.3,58.3c-26.3,34.6-68,57-114.8,57
			C64.5,288.2,0,223.7,0,144.1z"/>
		<g>
			<path fill-rule="evenodd" clip-rule="evenodd" d="M97.7,160.4h8.9l1.1-10.8c0.1-1,0.2-2,0.2-3.1h0.3c0.1,1.1,0.3,2.1,0.6,3.2
				l3.3,10.7h5.4l3.7-11.3c0.3-0.8,0.4-1.7,0.6-2.5h0.2l1.2,13.9h8.9l-4.2-25.3h-9.4l-2.9,9.9c-0.3,1.1-0.5,2.3-0.6,3.4h-0.2
				l-3.5-13.3h-9.5L97.7,160.4z"/>
			<path fill-rule="evenodd" clip-rule="evenodd" d="M149.2,135.1v14.1c0,2-0.1,3.7-2.5,3.7c-2.5,0-2.5-1.7-2.5-3.7v-14.1h-9.2v15
				c0,7.4,4.6,10.7,11.7,10.7c7.1,0,11.7-3.4,11.7-10.7v-15H149.2z"/>
			<polygon fill-rule="evenodd" clip-rule="evenodd" points="162.4,160.4 179.4,160.4 179.4,152.3 171.6,152.3 171.6,135.1 
				162.4,135.1 			"/>
			<polygon fill-rule="evenodd" clip-rule="evenodd" points="179.1,143.4 184.2,143.1 184.2,160.4 193.4,160.4 193.4,143.1 
				198.5,143.4 198.5,135.1 179.1,135.1 			"/>
			<rect x="200.9" y="135.1" fill-rule="evenodd" clip-rule="evenodd" width="9.2" height="25.3"/>
			<path fill-rule="evenodd" clip-rule="evenodd" fill="#C10000" d="M226.7,154.2c-0.8,0.2-1.8,0.5-3.1,0.5c-1.7,0-2.9-1.5-2.9-4
				c0-5.2,3-9.2,6.1-9.2c0.5,0,1.1,0.1,1.8,0.3l1.8-6.1c-0.7-0.3-1.7-0.5-3.4-0.5c-7.6,0-13.8,6.9-13.8,16.5c0,4.5,2.5,9,8.2,9
				c2.2,0,3.9-0.4,4.6-0.7L226.7,154.2z"/>
			<path fill-rule="evenodd" clip-rule="evenodd" fill="#C10000" d="M248.5,160.4c0-2.7,0.5-7.8,1-10.5l2.7-13.7
				c-1.8-0.6-4.6-1.1-7.4-1.1c-11.1,0-14.8,10.5-14.8,18.1c0,4.3,1.8,7.6,5.7,7.6c2,0,4.5-1.4,6.3-4.4h0.2c-0.1,1.3-0.1,2.6-0.2,3.9
				H248.5z M242.6,148.5c-0.9,4.4-2.1,6.3-3.4,6.3c-1.5,0-1.7-1.5-1.7-3.2c0-2.9,1.9-10.9,5.4-10.9c0.3,0,0.7,0.1,1.2,0.2
				L242.6,148.5z"/>
			<path fill-rule="evenodd" clip-rule="evenodd" fill="#C10000" d="M257.3,135.6l-4.4,23.2c-1,5-2.2,6.1-4.1,6.1
				c-0.4,0-0.8-0.1-1.2-0.1l-0.8,5.5c1.1,0.2,2,0.3,3,0.3c3.8,0,6.6-1.6,7.9-3.9c1-1.7,1.8-3.9,2.7-8.6l4.3-22.5H257.3z M261.9,133
				c2.1,0,4.1-1.6,4.1-4.5c0-1.9-1.1-3.7-3.4-3.7c-2.6,0-4,2.4-4,4.5C258.6,131.3,259.5,133,261.9,133L261.9,133z"/>
			<path fill-rule="evenodd" clip-rule="evenodd" fill="#C10000" d="M284.3,160.4c0-2.7,0.5-7.8,1-10.5l2.7-13.7
				c-1.8-0.6-4.6-1.1-7.4-1.1c-11.1,0-14.8,10.5-14.8,18.1c0,4.3,1.8,7.6,5.7,7.6c2,0,4.5-1.4,6.3-4.4h0.2c-0.1,1.3-0.1,2.6-0.2,3.9
				H284.3z M278.3,148.5c-0.9,4.4-2.1,6.3-3.4,6.3c-1.5,0-1.7-1.5-1.7-3.2c0-2.9,1.9-10.9,5.4-10.9c0.3,0,0.7,0.1,1.2,0.2
				L278.3,148.5z"/>
		</g>
	</g>
</g>
</svg>
