<?xml version="1.0" encoding="utf-8"?>
<!-- Generator: Adobe Illustrator 17.0.0, SVG Export Plug-In . SVG Version: 6.00 Build 0)  -->
<!DOCTYPE svg PUBLIC "-//W3C//DTD SVG 1.1//EN" "http://www.w3.org/Graphics/SVG/1.1/DTD/svg11.dtd">
<svg version="1.1" xmlns="http://www.w3.org/2000/svg" xmlns:xlink="http://www.w3.org/1999/xlink" x="0px" y="0px" width="110px"
	 height="110px" viewBox="0 0 110 110" enable-background="new 0 0 110 110" xml:space="preserve">
<g id="Fondo">
</g>
<g id="Guías">
</g>
<g id="Primer_plano">
	<g>
		<path fill="#C10000" d="M2.333,55.625c0-29.479,23.896-53.375,53.375-53.375c17.355,0,32.776,8.283,42.523,21.11L76.643,44.948
			c-3.888-7.61-11.803-12.82-20.935-12.82c-12.977,0-23.497,10.519-23.497,23.497c0,12.977,10.519,23.497,23.497,23.497
			c9.133,0,17.047-5.21,20.935-12.818l21.588,21.586C88.484,100.717,73.063,109,55.708,109C26.23,109,2.333,85.104,2.333,55.625z"/>
		<g>
			<path fill-rule="evenodd" clip-rule="evenodd" d="M38.502,61.674h3.296l0.398-4.005c0.037-0.373,0.062-0.758,0.087-1.131h0.112
				c0.025,0.398,0.112,0.771,0.211,1.169l1.219,3.967h1.99l1.356-4.203c0.1-0.299,0.162-0.622,0.224-0.933h0.062l0.459,5.136h3.296
				l-1.542-9.376h-3.469l-1.058,3.681c-0.112,0.398-0.174,0.833-0.237,1.244h-0.087l-1.294-4.925H40.02L38.502,61.674z"/>
			<path fill-rule="evenodd" clip-rule="evenodd" d="M57.579,52.297v5.223c0,0.735-0.025,1.38-0.932,1.38
				c-0.908,0-0.932-0.645-0.932-1.38v-5.223h-3.409v5.547c0,2.736,1.717,3.98,4.341,3.98c2.624,0,4.34-1.244,4.34-3.98v-5.547
				H57.579z"/>
			<polygon fill-rule="evenodd" clip-rule="evenodd" points="62.492,61.674 68.761,61.674 68.761,58.664 65.9,58.664 65.9,52.297 
				62.492,52.297 			"/>
			<polygon fill-rule="evenodd" clip-rule="evenodd" points="68.672,55.344 70.55,55.256 70.55,61.674 73.958,61.674 73.958,55.256 
				75.837,55.344 75.837,52.297 68.672,52.297 			"/>
			<rect x="76.756" y="52.297" fill-rule="evenodd" clip-rule="evenodd" width="3.408" height="9.376"/>
			<path fill-rule="evenodd" clip-rule="evenodd" fill="#C10000" d="M86.311,59.352c-0.281,0.056-0.676,0.187-1.144,0.187
				c-0.637,0-1.068-0.561-1.068-1.48c0-1.93,1.105-3.391,2.248-3.391c0.187,0,0.412,0.038,0.674,0.094l0.675-2.248
				c-0.243-0.094-0.637-0.169-1.274-0.169c-2.829,0-5.097,2.568-5.097,6.127c0,1.649,0.919,3.316,3.035,3.316
				c0.825,0,1.463-0.149,1.706-0.243L86.311,59.352z"/>
			<path fill-rule="evenodd" clip-rule="evenodd" fill="#C10000" d="M94.385,61.674c0-0.992,0.169-2.885,0.375-3.877l1.011-5.078
				c-0.655-0.224-1.687-0.412-2.739-0.412c-4.117,0-5.466,3.898-5.466,6.688c0,1.594,0.655,2.83,2.117,2.83
				c0.749,0,1.663-0.524,2.316-1.612h0.075c-0.019,0.488-0.038,0.975-0.056,1.461H94.385z M92.168,57.233
				c-0.319,1.612-0.766,2.324-1.27,2.324c-0.559,0-0.634-0.544-0.634-1.199c0-1.068,0.689-4.028,2.015-4.028
				c0.095,0,0.264,0.019,0.451,0.056L92.168,57.233z"/>
			<path fill-rule="evenodd" clip-rule="evenodd" fill="#C10000" d="M97.628,52.456l-1.63,8.581
				c-0.355,1.836-0.806,2.269-1.536,2.269c-0.15,0-0.282-0.019-0.432-0.038l-0.281,2.041c0.393,0.075,0.731,0.113,1.124,0.113
				c1.406,0,2.436-0.582,2.941-1.463c0.357-0.618,0.657-1.442,0.994-3.184l1.592-8.319H97.628z M99.333,51.5
				c0.787,0,1.517-0.599,1.517-1.667c0-0.712-0.393-1.369-1.274-1.369c-0.955,0-1.48,0.9-1.48,1.649
				c0,0.768,0.357,1.386,1.217,1.386H99.333z"/>
			<path fill-rule="evenodd" clip-rule="evenodd" fill="#C10000" d="M107.613,61.674c0-0.992,0.169-2.885,0.375-3.877L109,52.718
				c-0.657-0.224-1.688-0.412-2.741-0.412c-4.116,0-5.465,3.898-5.465,6.688c0,1.594,0.656,2.83,2.117,2.83
				c0.749,0,1.662-0.524,2.315-1.612h0.075c-0.019,0.488-0.038,0.975-0.056,1.461H107.613z M105.395,57.233
				c-0.318,1.612-0.765,2.324-1.269,2.324c-0.559,0-0.634-0.544-0.634-1.199c0-1.068,0.691-4.028,2.016-4.028
				c0.094,0,0.263,0.019,0.451,0.056L105.395,57.233z"/>
		</g>
	</g>
</g>
</svg>
