<?xml version="1.0" encoding="utf-8"?>
<!-- Generator: Adobe Illustrator 18.1.1, SVG Export Plug-In . SVG Version: 6.00 Build 0)  -->
<svg version="1.1" xmlns="http://www.w3.org/2000/svg" xmlns:xlink="http://www.w3.org/1999/xlink" x="0px" y="0px"
	 viewBox="0 0 67.1 67.3" enable-background="new 0 0 67.1 67.3" xml:space="preserve">
<g id="Capa_1">
</g>
<g id="User_Male_Black_Shape">
</g>
<g id="Business_Bag">
</g>
<g id="Supermarket_Shopping_Basket">
</g>
<g id="Shopping_Basket">
</g>
<g id="Right_Arrow_Circular_Button" display="none">
	<g display="inline">
		<g>
			<path fill="#999999" d="M13.1,33.9c0-8.1,6.6-14.7,14.7-14.7s14.7,6.6,14.7,14.7s-6.6,14.7-14.7,14.7S13.1,42,13.1,33.9z
				 M41.4,33.9c0-7.5-6.1-13.7-13.7-13.7c-7.5,0-13.7,6.1-13.7,13.7c0,7.5,6.1,13.7,13.7,13.7C35.3,47.5,41.4,41.4,41.4,33.9z"/>
			<path fill="#999999" d="M22.6,32c0-0.1,0-0.3,0.1-0.4c0.2-0.2,0.5-0.2,0.7,0l4.5,4.5l4.5-4.5c0.2-0.2,0.5-0.2,0.7,0
				c0.2,0.2,0.2,0.5,0,0.7l-4.9,4.9c-0.2,0.2-0.5,0.2-0.7,0l-4.9-4.9C22.7,32.3,22.6,32.2,22.6,32z"/>
		</g>
	</g>
</g>
<g id="Capa_7">
	<g display="none">
		<g id="Capa_1_19_" display="inline">
			<circle fill="#666666" cx="33.6" cy="33.6" r="33.3"/>
		</g>
		<g display="inline">
			<path fill="#FFFFFF" d="M17.7,35.6V16.8c0,0,0.5-4.5,5.4-4.7h17.1l13.6,14c0,0,0.3,21.4-0.1,23.1c-0.4,1.7-0.9,4.8-5.7,4.8H24.9
				c0,0-1.5,0.1-1.5-1.3s1.5-1.3,1.5-1.3l23.1,0c0,0,3.3,0.3,3.3-4.3s0-19.1,0-19.1l-9,0c0,0-4.2-0.3-4.3-3.7v-9.8H23.3
				c0,0-2.8,0-2.8,2.8l0,18.4c0,0,0,1.2-1.4,1.2C17.7,36.9,17.7,35.6,17.7,35.6z"/>
			<path fill="#FFFFFF" d="M48.1,36.3c0,0.5-0.4,0.9-0.9,0.9H31.5c-0.5,0-0.9-0.4-0.9-0.9l0,0c0-0.5,0.4-0.9,0.9-0.9h15.6
				C47.7,35.4,48.1,35.8,48.1,36.3L48.1,36.3z"/>
			<path fill="#FFFFFF" d="M48.1,39.8c0,0.5-0.4,0.9-0.9,0.9H31.5c-0.5,0-0.9-0.4-0.9-0.9l0,0c0-0.5,0.4-0.9,0.9-0.9h15.6
				C47.7,38.9,48.1,39.3,48.1,39.8L48.1,39.8z"/>
			<path fill="#FFFFFF" d="M47.1,20.2c0,0.5-0.4,0.9-0.9,0.9H31.5c-0.5,0-0.9-0.4-0.9-0.9l0,0c0-0.5,0.4-0.9,0.9-0.9h14.7
				c0.5,0,0.6,0.4,0.6,0.9H47.1z"/>
			<path fill="#FFFFFF" d="M48.1,23.7c0,0.5-0.4,0.9-0.9,0.9H31.5c-0.5,0-0.9-0.4-0.9-0.9l0,0c0-0.5,0.4-0.9,0.9-0.9h15.6
				C47.7,22.8,48.1,23.2,48.1,23.7L48.1,23.7z"/>
			<path fill="#FFFFFF" d="M26.2,18.7c-1.6,0-2.8,1.3-2.8,2.8c0,1.6,1.3,2.8,2.8,2.8s2.8-1.3,2.8-2.8C29,20,27.7,18.7,26.2,18.7z
				 M26.2,23c-0.8,0-1.5-0.7-1.5-1.5c0-0.8,0.7-1.5,1.5-1.5s1.5,0.7,1.5,1.5C27.7,22.4,27,23,26.2,23z"/>
			<path fill="#FFFFFF" d="M16.1,44.1l2.2,2.8L24,34.9c0,0,0.8-2,3-1.1c1.8,0.9,0.7,3,0.7,3l-7.5,16.1c0,0-0.5,1.3-1.4,1.3
				c-0.9,0-1.2-0.7-1.7-1.3c-0.5-0.5-4.1-6.1-4.1-6.1s-1.1-1.5,0.4-2.7C15.3,43,16.1,44.1,16.1,44.1z"/>
		</g>
	</g>
	<g>
		<g id="Capa_1_21_">
			<circle fill="#666666" cx="33.6" cy="33.6" r="33.3"/>
		</g>
	</g>
	<g>
		<g>
			<path fill="#FFFFFF" d="M48.5,41.2c-3.7,0-6.7,3-6.7,6.7c0,3.7,3,6.7,6.7,6.7c3.7,0,6.7-3,6.7-6.7C55.2,44.2,52.2,41.2,48.5,41.2
				z M48.5,53.2c-2.9,0-5.2-2.3-5.2-5.2s2.3-5.2,5.2-5.2c2.9,0,5.2,2.3,5.2,5.2C53.7,50.8,51.4,53.2,48.5,53.2z"/>
			<path fill="#FFFFFF" d="M11.1,31.1h9.2V12.6h-9.2V31.1z M15.7,14.5c1.4,0,2.5,1.1,2.5,2.5c0,1.4-1.1,2.5-2.5,2.5
				c-1.4,0-2.5-1.1-2.5-2.5C13.2,15.6,14.3,14.5,15.7,14.5z"/>
			<path fill="#FFFFFF" d="M45.3,36.9c0,0-0.2,1.5,0.8,1.8c0,0,1.1,0.2,1.4-0.8l0.4-6.1c0-0.6-0.3-1.1-0.3-1.1
				c-0.1-0.2-0.3-0.4-0.4-0.5c-0.6-0.3-1.3-0.6-2.1-0.9c0.1,0.1,0.2,0.3,0.3,0.4c0,0,0.4,0.7,0.3,1.4L45.3,36.9z"/>
			<path fill="#FFFFFF" d="M49.6,40c0,0,0.4,0.1,0.8-0.1c0.1-1.7,0.4-5.1,0.7-6.6c0,0,0.2-1.3-1.2-2.1c0,0-0.7-0.4-2-1
				c0.2,0.2,0.4,0.4,0.5,0.6c0,0,0.3,0.5,0.3,1.1l-0.4,6.4C48.3,38.4,48.3,39.8,49.6,40z"/>
			<path fill="#FFFFFF" d="M53.1,25.4c-9.7-8.9-17.8-11.2-17.8-11.2c-1.8-0.5-4.3-0.6-4.3-0.6h-8.3v11.8h3.7
				c3.9,8.8,9.9,11.8,9.9,11.8c1.8,1.4,4,3.3,4,3.3c1.6,1.4,2.2,1.3,2.2,1.3c1.3,0,1.2-1.6,1.2-1.6c0-2.9-4.6-7.7-4.6-7.7
				c-0.9-1,0-2.2,0-2.2c1.5-1.8,3-2.5,3-2.5c0.6-0.3,2-0.1,2-0.1c4.1,0.8,7.1,2.8,7.1,2.8c0.9,0.6,0.9,1.9,0.9,1.9
				c-0.3,1.6-0.6,5.6-0.6,5.6c-0.2,2.4,1.1,2.5,1.1,2.5c3.3,0.4,3.4-9.5,3.4-9.5C56,27.5,53.1,25.4,53.1,25.4z"/>
			<path fill="#FFFFFF" d="M50.6,48c-0.2-0.1-0.5-0.2-0.7-0.3c-0.3-0.1-0.6-0.1-0.8-0.2V46c0.6,0,1.2,0.2,1.9,0.4V45
				c-0.3-0.1-0.6-0.2-0.9-0.2c-0.3-0.1-0.7-0.1-1-0.1V44h-1.1v0.7c-0.4,0-0.7,0.1-1,0.2c-0.3,0.1-0.5,0.2-0.7,0.4
				c-0.2,0.2-0.4,0.4-0.5,0.6c-0.1,0.2-0.2,0.5-0.2,0.8c0,0.4,0.1,0.7,0.2,0.9c0.1,0.2,0.3,0.4,0.5,0.6c0.2,0.1,0.5,0.2,0.7,0.3
				c0.3,0.1,0.6,0.1,0.8,0.2v1.5c-0.2,0-0.4,0-0.6,0c-0.2,0-0.4,0-0.6-0.1c-0.2,0-0.3-0.1-0.5-0.1c-0.2,0-0.3-0.1-0.5-0.2V51
				c0.3,0.1,0.6,0.2,1,0.3c0.4,0.1,0.8,0.1,1.2,0.1v0.7H49v-0.7c0.7-0.1,1.3-0.3,1.7-0.6c0.4-0.3,0.6-0.8,0.6-1.4
				c0-0.4-0.1-0.7-0.2-0.9C51,48.3,50.8,48.1,50.6,48z M47.9,47.3c-0.3-0.1-0.5-0.1-0.7-0.2c-0.1-0.1-0.2-0.2-0.2-0.4
				c0-0.2,0.1-0.3,0.2-0.4c0.1-0.1,0.4-0.2,0.7-0.2L47.9,47.3L47.9,47.3z M49,50v-1.3c0.3,0,0.5,0.1,0.6,0.2
				c0.1,0.1,0.2,0.2,0.2,0.4C49.8,49.8,49.6,50,49,50z"/>
		</g>
	</g>
</g>
<g id="Coins_Money_Stack">
</g>
</svg>
