<?xml version="1.0" encoding="utf-8"?>
<!-- Generator: Adobe Illustrator 18.1.1, SVG Export Plug-In . SVG Version: 6.00 Build 0)  -->
<svg version="1.1" xmlns="http://www.w3.org/2000/svg" xmlns:xlink="http://www.w3.org/1999/xlink" x="0px" y="0px"
	 viewBox="0 0 30 30" enable-background="new 0 0 30 30" xml:space="preserve">
<g id="Capa_1">
</g>
<g id="User_Male_Black_Shape">
</g>
<g id="Business_Bag">
	<g>
		<g>
			<path fill="#999999" d="M17.4,20.5c0,0.4-0.3,0.7-0.7,0.7h-3.4c-0.4,0-0.7-0.3-0.7-0.7v-2.4L0,15.2v13.4C0,29.4,0.6,30,1.4,30
				h27.3c0.8,0,1.4-0.6,1.4-1.4V15.2l-12.6,2.9V20.5z"/>
			<path fill="#999999" d="M28.6,7.5H1.4C0.6,7.5,0,8.1,0,8.8v4.6l12.6,2.9V15c0-0.4,0.3-0.7,0.7-0.7h3.4c0.4,0,0.7,0.3,0.7,0.7v1.3
				L30,13.4V8.8C30,8.1,29.4,7.5,28.6,7.5z"/>
			<path fill="#999999" d="M9.7,4.5c0-1,0.8-1.8,1.8-1.8h6.8c1,0,1.8,0.8,1.8,1.8v1.8h1.6V4.5c0-1.9-1.5-3.5-3.5-3.5h-6.8
				C9.7,1,8.1,2.6,8.1,4.5v1.8h1.6L9.7,4.5L9.7,4.5z"/>
		</g>
	</g>
</g>
</svg>
