<?xml version="1.0" encoding="utf-8"?>
<!-- Generator: Adobe Illustrator 18.1.1, SVG Export Plug-In . SVG Version: 6.00 Build 0)  -->
<svg version="1.1" xmlns="http://www.w3.org/2000/svg" xmlns:xlink="http://www.w3.org/1999/xlink" x="0px" y="0px"
	 viewBox="0 0 67.1 67.3" enable-background="new 0 0 67.1 67.3" xml:space="preserve">
<g id="Capa_1">
</g>
<g id="User_Male_Black_Shape">
</g>
<g id="Business_Bag">
</g>
<g id="Supermarket_Shopping_Basket">
</g>
<g id="Shopping_Basket">
</g>
<g id="Right_Arrow_Circular_Button" display="none">
	<g display="inline">
		<g>
			<path fill="#999999" d="M13.1,33.9c0-8.1,6.6-14.7,14.7-14.7s14.7,6.6,14.7,14.7s-6.6,14.7-14.7,14.7S13.1,42,13.1,33.9z
				 M41.4,33.9c0-7.5-6.1-13.7-13.7-13.7c-7.5,0-13.7,6.1-13.7,13.7c0,7.5,6.1,13.7,13.7,13.7C35.3,47.5,41.4,41.4,41.4,33.9z"/>
			<path fill="#999999" d="M22.6,32c0-0.1,0-0.3,0.1-0.4c0.2-0.2,0.5-0.2,0.7,0l4.5,4.5l4.5-4.5c0.2-0.2,0.5-0.2,0.7,0
				c0.2,0.2,0.2,0.5,0,0.7l-4.9,4.9c-0.2,0.2-0.5,0.2-0.7,0l-4.9-4.9C22.7,32.3,22.6,32.2,22.6,32z"/>
		</g>
	</g>
</g>
<g id="Capa_7">
	<path id="smartphone-7-icon_5_" fill="#FFFFFF" d="M43.9,12.5H24c-1.4,0-2.5,1.1-2.5,2.5c0,0,0,32.6,0,33.9c0,5.2,7.8,5.7,12.4,5.7
		s12.5-0.4,12.5-5.7c0-1.3,0-33.9,0-33.9C46.4,13.6,45.3,12.5,43.9,12.5z M34,51.3c-1.4,0-2.5-1.1-2.5-2.5c0-1.4,1.1-2.5,2.5-2.5
		c1.4,0,2.5,1.1,2.5,2.5C36.4,50.2,35.3,51.3,34,51.3z M42.8,43.7H25.2V18.4h17.6L42.8,43.7z"/>
	<g display="none">
		<g id="Capa_1_19_" display="inline">
			<circle fill="#666666" cx="33.6" cy="33.6" r="33.3"/>
		</g>
		<g display="inline">
			<path fill="#FFFFFF" d="M17.7,35.6V16.8c0,0,0.5-4.5,5.4-4.7h17.1l13.6,14c0,0,0.3,21.4-0.1,23.1c-0.4,1.7-0.9,4.8-5.7,4.8H24.9
				c0,0-1.5,0.1-1.5-1.3s1.5-1.3,1.5-1.3l23.1,0c0,0,3.3,0.3,3.3-4.3s0-19.1,0-19.1l-9,0c0,0-4.2-0.3-4.3-3.7v-9.8H23.3
				c0,0-2.8,0-2.8,2.8l0,18.4c0,0,0,1.2-1.4,1.2C17.7,36.9,17.7,35.6,17.7,35.6z"/>
			<path fill="#FFFFFF" d="M48.1,36.3c0,0.5-0.4,0.9-0.9,0.9H31.5c-0.5,0-0.9-0.4-0.9-0.9l0,0c0-0.5,0.4-0.9,0.9-0.9h15.6
				C47.7,35.4,48.1,35.8,48.1,36.3L48.1,36.3z"/>
			<path fill="#FFFFFF" d="M48.1,39.8c0,0.5-0.4,0.9-0.9,0.9H31.5c-0.5,0-0.9-0.4-0.9-0.9l0,0c0-0.5,0.4-0.9,0.9-0.9h15.6
				C47.7,38.9,48.1,39.3,48.1,39.8L48.1,39.8z"/>
			<path fill="#FFFFFF" d="M47.1,20.2c0,0.5-0.4,0.9-0.9,0.9H31.5c-0.5,0-0.9-0.4-0.9-0.9l0,0c0-0.5,0.4-0.9,0.9-0.9h14.7
				c0.5,0,0.6,0.4,0.6,0.9H47.1z"/>
			<path fill="#FFFFFF" d="M48.1,23.7c0,0.5-0.4,0.9-0.9,0.9H31.5c-0.5,0-0.9-0.4-0.9-0.9l0,0c0-0.5,0.4-0.9,0.9-0.9h15.6
				C47.7,22.8,48.1,23.2,48.1,23.7L48.1,23.7z"/>
			<path fill="#FFFFFF" d="M26.2,18.7c-1.6,0-2.8,1.3-2.8,2.8c0,1.6,1.3,2.8,2.8,2.8s2.8-1.3,2.8-2.8C29,20,27.7,18.7,26.2,18.7z
				 M26.2,23c-0.8,0-1.5-0.7-1.5-1.5c0-0.8,0.7-1.5,1.5-1.5s1.5,0.7,1.5,1.5C27.7,22.4,27,23,26.2,23z"/>
			<path fill="#FFFFFF" d="M16.1,44.1l2.2,2.8L24,34.9c0,0,0.8-2,3-1.1c1.8,0.9,0.7,3,0.7,3l-7.5,16.1c0,0-0.5,1.3-1.4,1.3
				c-0.9,0-1.2-0.7-1.7-1.3c-0.5-0.5-4.1-6.1-4.1-6.1s-1.1-1.5,0.4-2.7C15.3,43,16.1,44.1,16.1,44.1z"/>
		</g>
	</g>
	<g>
		<g id="Capa_1_24_">
			<circle fill="#666666" cx="33.6" cy="33.6" r="33.3"/>
		</g>
	</g>
</g>
<g id="Coins_Money_Stack">
	<g>
		<path fill="#FFFFFF" d="M51.6,23.4L51.6,23.4c0.3-0.7,0.5-1.4,0.5-2.1v-3.1c0-5.1-8.3-9.3-18.5-9.3S15,13.1,15,18.2
			c0-0.3,0-0.5,0.1-0.7c-3.8,1.7-6.3,4.2-6.3,6.9v3.1c0,2.9,2.6,5.4,6.7,7.1l0,0C15.2,35.3,15,36,15,36.7v3.1c0,1.1,0.4,2.1,1.1,3.1
			c-0.7,1-1.1,2-1.1,3.1v3.1c0,5.1,8.3,9.3,18.5,9.3s18.5-4.1,18.5-9.3V46c0-1.1-0.4-2.2-1.1-3.1c0,0,0,0,0,0
			c0.5-0.7,0.9-1.5,1.1-2.3c3.8-1.7,6.3-4.2,6.3-6.9v-3.1C58.3,27.7,55.7,25.1,51.6,23.4z M33.6,10.5c10,0,17,4.1,17,7.7
			c0,3.6-7,7.7-17,7.7s-17-4.1-17-7.7C16.6,14.5,23.6,10.5,33.6,10.5z M10.4,24.4c0-1.8,1.7-3.7,4.6-5.2v2.1c0,5.1,8.3,9.3,18.5,9.3
			c1.5,0,3-0.1,4.4-0.3c-2.8,1.1-6.4,1.8-10.6,1.8C17.4,32.1,10.4,28,10.4,24.4z M50.5,46c0,3.6-7,7.7-17,7.7s-17-4.1-17-7.7
			c0-0.6,0.3-1.2,0.6-1.8c0,0,0,0,0,0c3.1,2.9,9.3,4.9,16.4,4.9c7.1,0,13.2-2,16.3-5c0,0,0,0,0,0C50.3,44.7,50.5,45.4,50.5,46z
			 M44.2,42.6c-2.8,1.1-6.4,1.8-10.6,1.8c-10,0-17-4.1-17-7.7c0-0.5,0.2-1.1,0.5-1.6c1.5,0.5,3.2,0.9,5,1.2
			c2.3,3.8,9.4,6.6,17.7,6.6C41.3,42.9,42.8,42.8,44.2,42.6C44.2,42.6,44.2,42.6,44.2,42.6z M39.7,38.3c-4,0-7.4-0.7-10.2-1.6
			c8.7-0.5,15.6-4,16.3-8.4c2.1-0.9,3.8-2.1,4.9-3.4c0,0,0,0,0,0c3.7,1.5,6,3.7,6,5.8C56.7,34.2,49.7,38.3,39.7,38.3z M36.9,20.4
			c0-0.3-0.3-0.6-0.8-0.7c-0.5-0.2-1.7-0.4-3.5-0.6c-1.6-0.2-2.9-0.5-3.8-0.7s-1.6-0.5-2.2-0.9c-0.6-0.4-0.8-0.9-0.8-1.4
			c0-0.7,0.5-1.3,1.5-1.9c1-0.6,2.6-0.9,4.8-1V12H35v1.1c3.3,0.2,5.4,0.9,6.3,2.3l-4,0.7c-0.8-0.9-2-1.4-3.6-1.4
			c-0.8,0-1.5,0.1-2,0.3c-0.5,0.2-0.8,0.5-0.8,0.8c0,0.3,0.2,0.5,0.7,0.7c0.5,0.2,1.5,0.4,3.1,0.6c1.7,0.3,3.1,0.5,4.1,0.7
			c1,0.2,1.8,0.5,2.4,1c0.6,0.4,0.9,0.9,0.9,1.4c0,0.8-0.6,1.5-1.8,2.1c-1.2,0.6-3,0.9-5.3,1v1.4h-2.9v-1.4
			c-3.8-0.2-6.2-1.1-7.1-2.7l4.5-0.5c0.4,1,1.8,1.6,4.2,1.6c1.1,0,1.9-0.1,2.4-0.3C36.6,21,36.9,20.8,36.9,20.4z"/>
	</g>
</g>
</svg>
