<?xml version="1.0" encoding="utf-8"?>
<!-- Generator: Adobe Illustrator 18.1.1, SVG Export Plug-In . SVG Version: 6.00 Build 0)  -->
<svg version="1.1" xmlns="http://www.w3.org/2000/svg" xmlns:xlink="http://www.w3.org/1999/xlink" x="0px" y="0px"
	 viewBox="0 0 30 30" enable-background="new 0 0 30 30" xml:space="preserve">
<g id="Capa_1">
	<g id="Capa_1_1_">
	</g>
	<g id="User_Male_Black_Shape">
	</g>
</g>
<g id="Home_Page">
	<g>
		<path fill="#999999" d="M4.1,29.3c0,0,0,0.7,0.6,0.7c0.8,0,7.6,0,7.6,0l0-6.2c0,0-0.1-1,0.9-1h3.1c1.2,0,1.1,1,1.1,1l0,6.2
			c0,0,6.4,0,7.4,0c0.8,0,0.8-0.8,0.8-0.8V15.3L15.2,6L4.1,15.3C4.1,15.3,4.1,29.3,4.1,29.3z"/>
		<path fill="#999999" d="M0,14.4c0,0,0.9,1.7,3,0L15.2,4.1l11.5,10.3c2.4,1.7,3.3,0,3.3,0L15.2,1L0,14.4z"/>
		<polygon fill="#999999" points="26.5,4 23.5,4 23.5,7.6 26.5,10.1 		"/>
	</g>
</g>
</svg>
